<?xml version="1.0" encoding="iso-8859-1"?>
<!-- Generator: Adobe Illustrator 19.1.0, SVG Export Plug-In . SVG Version: 6.00 Build 0)  -->
<svg version="1.1" id="Capa_1" xmlns="http://www.w3.org/2000/svg" xmlns:xlink="http://www.w3.org/1999/xlink" x="0px" y="0px"
	 viewBox="0 0 481 481" style="enable-background:new 0 0 481 481;" xml:space="preserve">
<g>
	<g>
		<path d="M230.95,394.3c2.6,2.6,6.1,4,9.5,4s6.9-1.3,9.5-4l87.7-87.7c5.3-5.3,5.3-13.8,0-19.1c-5.3-5.3-13.8-5.3-19.1,0l-64.7,64.7
			V13.5c0-7.5-6-13.5-13.5-13.5s-13.5,6-13.5,13.5v338.6l-64.7-64.7c-5.3-5.3-13.8-5.3-19.1,0s-5.3,13.8,0,19.1L230.95,394.3z"/>
		<path d="M439.55,354.7c-7.5,0-13.5,6-13.5,13.5V454H54.85v-85.8c0-7.5-6-13.5-13.5-13.5s-13.5,6-13.5,13.5v99.3
			c0,7.5,6,13.5,13.5,13.5h398.3c7.5,0,13.5-6,13.5-13.5v-99.3C453.05,360.7,447.05,354.7,439.55,354.7z"/>
	</g>
</g>
<g>
</g>
<g>
</g>
<g>
</g>
<g>
</g>
<g>
</g>
<g>
</g>
<g>
</g>
<g>
</g>
<g>
</g>
<g>
</g>
<g>
</g>
<g>
</g>
<g>
</g>
<g>
</g>
<g>
</g>
</svg>
